<svg id="wave" style="transform:rotate(0deg); transition: 0.3s" viewBox="0 0 1440 260" version="1.1" xmlns="http://www.w3.org/2000/svg"><defs><linearGradient id="sw-gradient-0" x1="0" x2="0" y1="1" y2="0"><stop stop-color="rgba(74.252, 55.721, 94.842, 1)" offset="0%"></stop><stop stop-color="rgba(106.552, 106.598, 181.36, 1)" offset="100%"></stop></linearGradient></defs><path style="transform:translate(0, 0px); opacity:1" fill="url(#sw-gradient-0)" d="M0,130L60,117C120,104,240,78,360,78C480,78,600,104,720,125.7C840,147,960,165,1080,156C1200,147,1320,113,1440,86.7C1560,61,1680,43,1800,47.7C1920,52,2040,78,2160,104C2280,130,2400,156,2520,151.7C2640,147,2760,113,2880,104C3000,95,3120,113,3240,117C3360,121,3480,113,3600,112.7C3720,113,3840,121,3960,117C4080,113,4200,95,4320,104C4440,113,4560,147,4680,169C4800,191,4920,199,5040,182C5160,165,5280,121,5400,121.3C5520,121,5640,165,5760,164.7C5880,165,6000,121,6120,108.3C6240,95,6360,113,6480,138.7C6600,165,6720,199,6840,203.7C6960,208,7080,182,7200,143C7320,104,7440,52,7560,52C7680,52,7800,104,7920,104C8040,104,8160,52,8280,43.3C8400,35,8520,69,8580,86.7L8640,104L8640,260L8580,260C8520,260,8400,260,8280,260C8160,260,8040,260,7920,260C7800,260,7680,260,7560,260C7440,260,7320,260,7200,260C7080,260,6960,260,6840,260C6720,260,6600,260,6480,260C6360,260,6240,260,6120,260C6000,260,5880,260,5760,260C5640,260,5520,260,5400,260C5280,260,5160,260,5040,260C4920,260,4800,260,4680,260C4560,260,4440,260,4320,260C4200,260,4080,260,3960,260C3840,260,3720,260,3600,260C3480,260,3360,260,3240,260C3120,260,3000,260,2880,260C2760,260,2640,260,2520,260C2400,260,2280,260,2160,260C2040,260,1920,260,1800,260C1680,260,1560,260,1440,260C1320,260,1200,260,1080,260C960,260,840,260,720,260C600,260,480,260,360,260C240,260,120,260,60,260L0,260Z"></path></svg>