<svg id="wave" style="transform:rotate(0deg); transition: 0.3s" viewBox="0 0 1440 260" version="1.1" xmlns="http://www.w3.org/2000/svg"><defs><linearGradient id="sw-gradient-0" x1="0" x2="0" y1="1" y2="0"><stop stop-color="rgba(39.615, 32.942, 47.03, 1)" offset="0%"></stop><stop stop-color="rgba(88.111, 88.16, 167.699, 1)" offset="100%"></stop></linearGradient></defs><path style="transform:translate(0, 0px); opacity:1" fill="url(#sw-gradient-0)" d="M0,130L60,134.3C120,139,240,147,360,134.3C480,121,600,87,720,95.3C840,104,960,156,1080,160.3C1200,165,1320,121,1440,86.7C1560,52,1680,26,1800,34.7C1920,43,2040,87,2160,125.7C2280,165,2400,199,2520,186.3C2640,173,2760,113,2880,82.3C3000,52,3120,52,3240,60.7C3360,69,3480,87,3600,112.7C3720,139,3840,173,3960,186.3C4080,199,4200,191,4320,186.3C4440,182,4560,182,4680,169C4800,156,4920,130,5040,125.7C5160,121,5280,139,5400,156C5520,173,5640,191,5760,199.3C5880,208,6000,208,6120,177.7C6240,147,6360,87,6480,82.3C6600,78,6720,130,6840,151.7C6960,173,7080,165,7200,151.7C7320,139,7440,121,7560,121.3C7680,121,7800,139,7920,138.7C8040,139,8160,121,8280,99.7C8400,78,8520,52,8580,39L8640,26L8640,260L8580,260C8520,260,8400,260,8280,260C8160,260,8040,260,7920,260C7800,260,7680,260,7560,260C7440,260,7320,260,7200,260C7080,260,6960,260,6840,260C6720,260,6600,260,6480,260C6360,260,6240,260,6120,260C6000,260,5880,260,5760,260C5640,260,5520,260,5400,260C5280,260,5160,260,5040,260C4920,260,4800,260,4680,260C4560,260,4440,260,4320,260C4200,260,4080,260,3960,260C3840,260,3720,260,3600,260C3480,260,3360,260,3240,260C3120,260,3000,260,2880,260C2760,260,2640,260,2520,260C2400,260,2280,260,2160,260C2040,260,1920,260,1800,260C1680,260,1560,260,1440,260C1320,260,1200,260,1080,260C960,260,840,260,720,260C600,260,480,260,360,260C240,260,120,260,60,260L0,260Z"></path></svg>