<svg id="wave" style="transform:rotate(0deg); transition: 0.3s" viewBox="0 0 1440 400" version="1.1" xmlns="http://www.w3.org/2000/svg"><defs><linearGradient id="sw-gradient-0" x1="0" x2="0" y1="1" y2="0"><stop stop-color="rgba(43, 37, 54, 1)" offset="0%"></stop><stop stop-color="rgba(100, 98, 165, 1)" offset="100%"></stop></linearGradient></defs><path style="transform:translate(0, 0px); opacity:1" fill="url(#sw-gradient-0)" d="M0,200L60,206.7C120,213,240,227,360,206.7C480,187,600,133,720,146.7C840,160,960,240,1080,246.7C1200,253,1320,187,1440,133.3C1560,80,1680,40,1800,53.3C1920,67,2040,133,2160,193.3C2280,253,2400,307,2520,286.7C2640,267,2760,173,2880,126.7C3000,80,3120,80,3240,93.3C3360,107,3480,133,3600,173.3C3720,213,3840,267,3960,286.7C4080,307,4200,293,4320,286.7C4440,280,4560,280,4680,260C4800,240,4920,200,5040,193.3C5160,187,5280,213,5400,240C5520,267,5640,293,5760,306.7C5880,320,6000,320,6120,273.3C6240,227,6360,133,6480,126.7C6600,120,6720,200,6840,233.3C6960,267,7080,253,7200,233.3C7320,213,7440,187,7560,186.7C7680,187,7800,213,7920,213.3C8040,213,8160,187,8280,153.3C8400,120,8520,80,8580,60L8640,40L8640,400L8580,400C8520,400,8400,400,8280,400C8160,400,8040,400,7920,400C7800,400,7680,400,7560,400C7440,400,7320,400,7200,400C7080,400,6960,400,6840,400C6720,400,6600,400,6480,400C6360,400,6240,400,6120,400C6000,400,5880,400,5760,400C5640,400,5520,400,5400,400C5280,400,5160,400,5040,400C4920,400,4800,400,4680,400C4560,400,4440,400,4320,400C4200,400,4080,400,3960,400C3840,400,3720,400,3600,400C3480,400,3360,400,3240,400C3120,400,3000,400,2880,400C2760,400,2640,400,2520,400C2400,400,2280,400,2160,400C2040,400,1920,400,1800,400C1680,400,1560,400,1440,400C1320,400,1200,400,1080,400C960,400,840,400,720,400C600,400,480,400,360,400C240,400,120,400,60,400L0,400Z"></path></svg>